<?xml version="1.0" encoding="UTF-8" standalone="no"?>
<svg
   version="1.1"
   width="706.72784"
   height="707.48346"
   viewBox="0 0 706.72784 707.48346"
   id="svg21"
   sodipodi:docname="mabalogo1.svg"
   inkscape:version="1.3.2 (091e20e, 2023-11-25, custom)"
   xmlns:inkscape="http://www.inkscape.org/namespaces/inkscape"
   xmlns:sodipodi="http://sodipodi.sourceforge.net/DTD/sodipodi-0.dtd"
   xmlns="http://www.w3.org/2000/svg"
   xmlns:svg="http://www.w3.org/2000/svg">
  <defs
     id="defs21">
    <filter
       inkscape:collect="always"
       style="color-interpolation-filters:sRGB"
       id="filter1"
       x="-0.0064377196"
       y="-0.0064566917"
       width="1.0128754"
       height="1.0129134">
      <feGaussianBlur
         inkscape:collect="always"
         stdDeviation="1.8716171"
         id="feGaussianBlur1" />
    </filter>
  </defs>
  <sodipodi:namedview
     id="namedview21"
     pagecolor="#ffffff"
     bordercolor="#000000"
     borderopacity="0.25"
     inkscape:showpageshadow="2"
     inkscape:pageopacity="0.0"
     inkscape:pagecheckerboard="0"
     inkscape:deskcolor="#d1d1d1"
     inkscape:zoom="0.70457542"
     inkscape:cx="911.18705"
     inkscape:cy="338.50173"
     inkscape:window-width="1366"
     inkscape:window-height="745"
     inkscape:window-x="-8"
     inkscape:window-y="-8"
     inkscape:window-maximized="1"
     inkscape:current-layer="g14" />
  <g
     id="layer1"
     transform="translate(-601.35856,78.896887)">
    <g
       style="fill:#000000;fill-opacity:1;stroke-linejoin:miter"
       id="g1">
      <path
         d="m 784.5432,-14.52359 1.1242,-0.245026 q 151.3011,-63.070584 282.1245,-13.823318 126.8607,46.950485 186.6817,179.616184 62.7339,166.62145 -34.082,310.94352 -55.6323,72.48213 -111.3268,98.68427 -63.5024,37.11686 -153.6682,39.41786 -41.79003,-1.65193 -45.9513,-3.28566 Q 875.9723,592.10815 844.222,580.5222 796.89026,562.95685 762.36536,536.7858 674.80237,470.8825 641.9993,361.78442 630.50366,324.30212 630.66797,268.50397 633.37213,207.83824 651.796,158.2942 681.008,69.76495 781.28516,-13.338062 734.99176,7.8022614 700.89746,43.032944 673.46545,71.79794 668.03064,81.61157 q -19.87494,26.50441 -33.80988,58.6348 -76.28106,188.01968 52.5398,358.64285 55.34654,69.31508 152.78119,105.75808 91.39685,32.95115 196.93515,10.0708 157.6831,-43.7556 227.3076,-176.7577 72.236,-148.477 13.3987,-295.82968 -26.0042,-64.517835 -84.857,-122.17716 -68.563,-60.378113 -136.6961,-78.164444 Q 898.74866,-99.24236 784.5432,-14.52359"
         id="path1"
         style="fill:#d5d8dd;fill-opacity:1;filter:url(#filter1)" />
    </g>
    <g
       style="fill:#f15152;fill-opacity:1;stroke-linejoin:miter"
       id="g2">
      <path
         d="m 837.40173,-17.2402 -0.29528,0.0066 q -5.80658,-1.590219 -5.85325,24.212391 -1.2709,29.806254 4.223,113.073979 -9.6277,-15.92043 -73.4308,-79.799992 -11.29534,-11.46099 -14.3505,-2.998346 -0.2681,-0.329506 0.0819,7.616752 l 4.3896,59.764216 6.17576,109.60292 q 0.69474,8.70628 1.42267,13.29193 2.42747,10.93854 4.84907,15.25685 l 0.61187,3.55527 Q 763.05817,91.21799 754.3151,43.914337 q 66.35476,65.138353 81.1119,89.419133 2.2966,2.72001 5.9813,0.94017 2.2941,-0.75524 2.4035,-6.46488 -6.8746,-97.675932 -3.9064,-135.381926 12.6617,19.023039 29.53045,54.254273 l 26.31702,55.529203 36.10723,80.34735 q 4.30396,8.58008 11.92664,16.15497 2.68311,2.46413 5.21666,0.87018 0.45284,-0.98134 -4.0739,-5.64113 l 5.0418,-0.7456 q -2.38146,-4.27683 -8.10857,-12.67472 L 938.16364,173.376 882.74536,55.930492 866.7674,23.463726 Q 855.037,0.68343353 847.2005,-10.25773 q -3.7337,-6.568167 -9.79877,-6.98247"
         id="path2" />
    </g>
    <g
       style="fill:#f15152;fill-opacity:1;stroke-linejoin:miter"
       id="g3">
      <path
         d="m 1032.7003,-78.54496 -0.1838,0.0036 q -5.2691,-0.49103 -7.0131,5.282494 -3.3392,16.68821 -7.9304,52.402691 l -1.0797,18.242756 q -2.9964,84.404459 -3.7444,91.354423 -1.151,16.222396 -6.4399,60.944486 l -1.0689,12.65432 q -0.2216,26.16443 0.9366,26.22837 l -0.3446,4.00531 q -0.1618,-1.65168 6.5426,-27.77903 0.7856,-3.56845 1.3578,-7.10413 0.7979,-5.05181 3.5141,-30.83874 4.1514,-40.85958 3.7212,-40.92861 0.5183,-5.74457 3.1833,-81.16822 0.5519,-13.185112 1.2205,-22.005241 0.1122,-8.855904 7.2073,-51.771649 2.603,3.37782 7.9021,15.236474 33.1914,75.512439 40.1273,89.49699 l 32.1511,66.495416 q 4.047,7.44423 12.957,35.18406 1.9635,5.12506 3.5834,8.03452 4.4172,8.88528 9.1523,16.27627 5.2872,8.32367 11.2426,15.16788 0.4818,0.64956 0.5736,1.63537 3.1253,0.24176 8.3377,-0.82748 -0.3388,-4.11801 -1.6153,-5.94815 -15.4947,-23.64725 -20.7713,-34.50244 l -12.7912,-31.4633 Q 1082.5886,22.0942 1077.74,10.922401 l -33.8219,-76.098681 q -8.3672,-15.38819 -11.2178,-13.36868"
         id="path3" />
    </g>
    <g
       style="fill:#f15152;fill-opacity:1;stroke-linejoin:miter"
       id="g4">
      <path
         d="m 1026.5433,108.82207 1.0005,-0.19686 q 1.3263,-0.19326 9.7155,-3.30012 1.1694,-0.4164 7.8191,-3.05527 l 16.4272,-6.676924 26.4291,-9.801011 q 8.1639,-3.245095 10.8429,-4.64566 0.7999,-0.377675 1.4858,-0.834675 -0.6975,-0.07466 -0.7401,-7.675915 -5.7558,1.626135 -16.3491,5.426555 -4.4092,1.55232 -23.8165,9.36742 -22.3147,8.144456 -26.1343,9.90894 l -2.0817,1.04777 q -1.7627,1.0966 -2.5823,2.28314 -0.8195,1.18654 -1.0289,2.35764 l -0.1487,4.83662 q -0.1414,0.67135 -0.8385,0.95835"
         id="path4" />
    </g>
    <g
       style="fill:#f15152;fill-opacity:1;stroke-linejoin:miter"
       id="g5">
      <path
         d="m 924.02454,275.8633 0.96886,3.2066 39.8773,114.45656 33.0144,97.80624 q 5.7264,16.46997 9.155,25.28253 3.4286,8.81263 4.7932,10.91067 1.0521,1.8844 1.8447,-0.3732 0.5423,-2.3592 0.5361,-5.287 0.518,0.057 0.5202,-0.53806 0.1101,-0.57477 -0.1214,-2.24564 -0.3342,-3.0794 -3.5777,-13.68854 L 939.9592,298.6832 q -1.5463,-4.8074 -6.3722,-12.87223 -2.47335,-3.66595 -7.78945,-6.58947 -0.93811,-0.99 -1.77301,-3.3582"
         id="path5" />
    </g>
    <g
       style="fill:#f15152;fill-opacity:1;stroke-linejoin:miter"
       id="g6">
      <path
         d="m 987.9792,263.89276 -1.196,0.007 q -22.15094,0.83811 -35.4574,7.36256 -5.36773,2.45715 -8.60266,5.1491 l -11.51344,11.70804 q 2.9469,-3.97204 35.4628,-13.01477 13.99156,-3.1333 24.7537,-2.62637 36.8721,2.1647 63.1583,17.91604 9.8313,7.40966 12.4525,25.48368 3.5832,18.15481 -1.1018,35.76565 -3.3144,13.27139 -21.1779,40.53883 -21.7067,2.57354 -20.0097,12.56035 1.3073,2.85145 9.5503,1.63739 9.4481,-1.58929 14.6001,-6.89248 l 12.3469,-1.04006 q 29.1447,-1.50392 36.8474,1.71764 17.592,3.57246 22.6599,33.93088 2.3796,12.21018 -1.3167,26.75345 -3.7491,16.10049 -10.1845,21.88061 -10.0515,10.43604 -55.1854,27.84814 -14.227,5.15473 -39.2222,3.40458 -3.4796,3.70004 -2.0671,7.7885 9.558,2.88505 19.3806,2.7653 21.9748,-1.27277 30.0109,-6.33545 45.2813,-20.59205 51.4456,-28.61785 8.1186,-6.3403 12.662,-22.98802 5.2527,-18.65598 2.4246,-32.84188 -5.4393,-29.93836 -20.8437,-37.5774 -11.5797,-8.90002 -53.1604,-5.0737 11.4226,-18.43487 15.6435,-28.83303 1.6727,-1.28953 5.6922,-24.181 1.2674,-12.84101 -1.8539,-26.5087 -2.2375,-13.79315 -9.3333,-22.19135 -5.4845,-6.47308 -9.3848,-8.43847 -10.8532,-5.28458 -22.4395,-8.97505 -24.777,-8.17168 -45.0409,-8.08184"
         id="path6" />
    </g>
    <g
       style="fill:#f15152;fill-opacity:1;stroke-linejoin:miter"
       id="g7"
       transform="matrix(1.0447697,0,0,1.0793587,-49.952442,-16.805549)">
      <path
         d="m 1131.2375,221.57034 -0.1618,0.003 q -8.1536,-0.87647 -7.1171,21.42427 1.7139,27.428 11.3809,76.00896 6.5404,31.1879 24.984,88.52176 6.7109,21.63586 18.277,39.46039 l -7.0508,-28.60468 q -15.8965,-50.47952 -19.4407,-63.82495 -4.3948,-15.64218 -8.4032,-33.89282 -12.7456,-61.6474 -12.1912,-89.18565 l 19.4032,26.31145 q 99.1935,146.51458 105.146,153.25878 8.5905,11.48364 9.9853,11.22504 6.6584,2.09491 6.4559,-3.10532 -0.2873,-1.45227 -1.5594,-3.0928 l -8.9373,-13.2044 Q 1231.31,361.64398 1210.561,331.56833 l -58.094,-84.71871 -16.0074,-21.60252 q -3.6644,-4.19821 -5.2221,-3.67676"
         id="path7" />
    </g>
    <g
       style="fill:#f15152;fill-opacity:1;stroke-linejoin:miter"
       id="g8"
       transform="matrix(1.0447697,0,0,1.0793587,-49.952442,-16.805549)">
      <path
         d="m 1139.6973,368.9842 1.0988,-0.52305 q 1.4645,-0.62793 10.461,-6.49921 l 28.281,-19.01544 26.4244,-16.4983 q 5.2022,-3.3101 10.5193,-7.18306 2.5208,-1.90552 2.6066,-2.19022 -0.9737,0.0693 -1.0145,-6.55557 -0.4728,0.18387 -0.8707,0.38545 -5.3656,2.72276 -17.0742,10.25124 l -25.6073,16.99826 -24.1391,15.2962 q -5.1258,3.29324 -6.4023,4.41666 l -1.6142,1.54184 q -1.3019,1.47985 -1.7343,2.7294 -0.4323,1.2496 -0.3747,2.28668 l 0.2919,3.3873 q -0.1014,0.66546 -0.8517,1.17182"
         id="path8" />
    </g>
    <g
       style="fill:#1b998b;fill-opacity:1;stroke-linejoin:miter"
       id="g9">
      <path
         d="m 766.1325,230.06694 0.1231,-2.3605 0.043,-3.34639 q 0.003,-3.83924 -0.11035,-9.14473 -0.1132,-5.30536 -0.29865,-11.57152 l -0.9931,-32.91144 q -0.31135,-12.72938 -0.50015,-23.10678 -0.3102,-18.17816 -0.3503,-27.41694 -0.0716,-7.82822 -0.12526,-36.721076 L 763.8451,76.18663 Q 763.6442,62.4059 763.10516,54.78396 l -0.28711,-3.45169 q -0.30685,-3.07702 -0.6867,-4.696394 -0.37989,-1.61937 -0.82715,-1.822126 -1.633,1.025457 -1.80914,-0.47322 -0.57356,-2.162742 -0.5669,-5.093093 -1.6651,2.818513 -2.29931,7.251373 -0.43675,2.52075 -0.74265,6.28296 l -0.245,4.12988 -0.1234,4.865236 0.0265,5.657898 q 0.0258,2.733416 1.47665,72.877346 0.1378,6.61286 0.8749,65.59757 l 0.2349,5.43973 0.4908,4.27927 q 0.61873,3.69906 1.54073,5.72208 1.20677,2.98847 5.34087,6.08332 l 0.44746,1.09051 0.18194,1.54233"
         id="path9" />
    </g>
    <g
       style="fill:#1b998b;fill-opacity:1;stroke-linejoin:miter"
       id="g10">
      <path
         d="m 752.7549,52.666626 0.9151,1.247734 q 1.9247,3.051968 38.2418,40.41859 l 28.9348,31.98298 q 5.2246,5.7524 11.65975,11.98754 4.78275,4.49693 5.20155,4.05121 0.20445,0.17303 0.6633,-1.54551 0.4196,-2.56396 0.4147,-5.48967 0.3764,0.0733 0.33153,-0.11882 0.18127,-0.2499 -1.41103,-2.4544 -3.987,-5.06016 -9.5168,-10.94622 -3.0551,-3.45819 -29.9157,-31.47543 l -1.781,-1.928725 -22.72276,-24.986199 -6.90544,-7.100624 q -1.53267,-1.739925 -5.89046,-3.448956 -1.57134,-0.351409 -2.76014,-0.142398 l -3.857,0.810257 q -0.80284,-0.03064 -1.6022,-0.861359"
         id="path10" />
    </g>
    <g
       style="fill:#1b998b;fill-opacity:1;stroke-linejoin:miter"
       id="g11">
      <path
         d="m 834.9661,0.9374962 -0.2137,1.7732081 q -0.368,4.5775267 -0.4665,13.5852557 l -0.0726,9.35154 q -0.0276,25.427398 -0.0686,29.15413 -0.049,8.417322 -0.2057,16.222296 -0.23594,10.175124 -0.3355,12.69751 -0.17235,5.895614 -1.03136,27.655164 l -0.15149,5.51325 q -0.22589,10.39819 0.107,16.54248 0.33288,6.14428 1.17795,8.65274 1.0219,2.50409 1.8022,2.00787 0.25447,0.13883 0.53926,-1.5704 0.0657,-0.78398 0.0414,-1.64911 -0.068,-1.77533 -0.19474,-2.73674 1.92374,0.88405 2.789,-1.20296 0.5748,-1.05342 1.0561,-3.23187 l 0.42953,-2.55031 0.32612,-3.29404 q 0.23695,-3.83465 0.30335,-8.84413 0.0677,-2.28136 0.22747,-15.21733 l 0.23657,-28.37852 q 0.0373,-3.83965 0.0889,-6.610874 l 0.1574,-6.584198 q 1.0497,-35.790062 0.99587,-35.485846 0.0946,-4.112012 0.13586,-7.347561 l -0.0986,-4.10388 -0.387,-3.238076 Q 841.6229,9.241928 840.7429,7.6893096 839.5943,5.4006033 835.5177,2.9397862 L 835.101,2.1045609 834.9661,0.9374962"
         id="path11" />
    </g>
    <g
       style="fill:#1b998b;fill-opacity:1;stroke-linejoin:miter"
       id="g12">
      <path
         d="m 838.0441,0.898155 1.1023,2.5012343 42.4339,82.4286607 36.8816,74.02403 q 7.2013,14.2542 11.6963,22.39692 6.4865,12.0472 8.5033,12.73141 0.2933,0.23434 0.6961,-1.33118 0.24823,-2.41664 -0.1125,-5.32219 0.545,0.38004 0.5329,-1.03552 0.0223,-1.40257 -2.656,-7.79041 -4.4555,-9.8098 -6.7842,-14.15889 Q 895.55084,97.659424 854.75635,16.88099 852.97986,13.166163 847.8485,7.36345 845.24585,4.7798786 839.9508,3.3609571 838.98846,2.714716 838.0441,0.898155"
         id="path12" />
    </g>
    <g
       style="fill:#1b998b;fill-opacity:1;stroke-linejoin:miter"
       id="g13"
       transform="translate(8.5157668,5.6771779)">
      <path
         d="m 1008.2428,166.39883 0.3513,-3.10336 0.3836,-4.41034 q 0.3998,-5.06378 0.8518,-12.07101 l 3.5389,-58.7763 q 0.052,-1.26367 2.034,-30.514115 1.6686,-23.998925 2.615,-36.186516 l 4.507,-58.076609 q 1.2907,-18.194086 1.6748,-28.36915 0.3842,-10.175076 -0.017,-12.83514 l -0.2402,-0.89972 q -1.247,0.70093 -1.8147,-0.721176 -1.0636,-2.155694 -1.7196,-5.009454 -1.7909,3.2567 -3.3969,16.457346 -0.583,4.806854 -1.151,11.648841 l -0.5513,7.43808 q -6.0998,91.604111 -6.4397,96.235613 -2.8398,40.893065 -6.1745,86.58605 l -0.364,7.19413 0.018,5.68737 0.3304,4.38849 0.5732,3.29739 q 0.6948,2.75193 1.5973,4.15287 l 3.0515,4.35714 0.3276,1.47901 0.014,2.05056"
         id="path13" />
    </g>
    <g
       style="fill:#1b998b;fill-opacity:1;stroke-linejoin:miter"
       id="g14">
      <path
         d="m 1032.5835,106.01235 1.0528,-0.17888 q 1.3921,-0.16946 10.2851,-3.15651 1.2385,-0.40054 8.2982,-2.939536 l 17.4568,-6.40727 q -0.2814,-0.0153 28.0537,-9.32384 8.2274,-2.89297 12.5898,-4.861425 l 1.0344,-0.495595 q -0.2068,-0.08777 -1.9237,-7.40069 -17.3277,5.27739 -19.0846,6.032164 -6.0653,2.078621 -22.4226,8.026086 l -23.6642,7.91923 q -5.0197,1.76222 -6.3136,2.51603 l -1.6514,1.08499 q -1.3647,1.12452 -1.9229,2.29786 -0.87,1.598046 -0.8628,5.948536 -0.1839,0.66371 -0.925,0.93885"
         id="path14" />
    </g>
    <g
       style="fill:#1b998b;fill-opacity:1;stroke-linejoin:miter"
       id="g15"
       transform="translate(-2.3391813,18.71345)">
      <path
         d="m 1147.4414,154.39233 -1.2247,-3.06512 -43.0362,-95.237084 -43.2495,-98.365349 q -7.8304,-17.61898 -12.6035,-27.275007 -4.7732,-9.656046 -6.7313,-11.83785 l -0.822,-0.661946 q -1.4211,1.507416 -1.876,0.153931 -1.0221,-1.895355 -1.6832,-4.771895 -0.5795,7.5163 5.6008,22.874117 l 87.848,197.244673 q 1.9343,4.58451 7.4115,12.06232 2.7694,3.37247 8.3219,5.74286 1.0182,0.88495 2.0442,3.13635"
         id="path15" />
    </g>
    <g
       style="fill:#1b998b;fill-opacity:1;stroke-linejoin:miter"
       id="g16"
       transform="matrix(1.2366064,0,0,1.0733399,-263.99686,-15.530957)">
      <path
         d="m 1115.7635,211.7669 0.4544,2.97816 3.0386,15.64781 q 15.2957,72.27119 16.2365,77.73771 l 6.7083,33.68354 12.0099,62.57078 q 3.4396,17.26927 5.857,27.23058 2.4175,9.9613 3.9744,13.50292 1.6431,3.20225 2.2422,2.23075 0.8423,-0.35348 -0.505,-6.02835 1.8346,-0.0787 1.7707,-4.18768 -0.1975,-6.94532 -0.8962,-10.66034 l -2.2449,-12.58288 q -18.912,-92.28257 -36.3446,-180.05643 l -1.4841,-5.28208 q -1.4756,-4.53149 -2.8609,-6.90661 -1.3851,-2.37511 -2.624,-3.43982 l -4.0902,-3.24701 q -0.7782,-0.98178 -1.2421,-3.19105"
         id="path16" />
    </g>
    <g
       style="fill:#1b998b;fill-opacity:1;stroke-linejoin:miter"
       id="g17"
       transform="matrix(1.0049681,0,0,1.1575094,-5.0613673,-34.156314)">
      <path
         d="m 1127.8709,222.01665 1.6459,2.3691 60.1499,77.20059 52.7976,69.52845 q 10.2649,13.37227 16.4893,20.94352 9.0594,11.23416 11.0703,11.55015 0.3133,0.18092 0.4839,-1.45108 -0.095,-2.45241 -0.8406,-5.28278 0.5869,0.28496 0.1893,-1.18553 -0.3635,-1.46386 -4.4825,-7.56784 l -117.3762,-152.5406 q -2.574,-3.50254 -8.9464,-8.58284 -3.1544,-2.20939 -8.7456,-2.78068 -1.0999,-0.50068 -2.4349,-2.20046"
         id="path17" />
    </g>
    <g
       style="fill:#1b998b;fill-opacity:1;stroke-linejoin:miter"
       id="g18"
       transform="matrix(1.0447697,0,0,1.0793587,-59.887503,-26.74061)">
      <path
         d="m 1210.9473,318.41254 -0.022,0.002 q -5.2059,3.86017 -7.3851,6.06124 -1.7385,1.6611 -4.3469,4.4668 l -4.6689,4.2203 q -6.1661,7.24733 -15.5145,15.96974 -0.9126,0.89618 -5.9001,4.65776 l -12.7584,8.99132 -3.592,2.70691 -1.6882,1.45322 q -1.9633,1.89825 -1.7742,3.14959 0.1534,1.80472 1.8748,1.88712 1.3498,-0.28576 1.5422,-1.18674 -0.5694,-0.5748 -0.2037,-1.11725 0.2032,-0.0983 0.557,0.25867 0.2888,0.27924 0.2856,1.16396 0.068,0.1264 0.3244,0.10234 l 1.1527,-0.33628 5.4393,-2.12039 q 5.7169,-2.10965 15.3363,-8.66351 3.0103,-2.04093 6.6471,-5.25826 11.971,-10.7297 15.4282,-14.65165 l 4.3537,-3.79227 10.0322,-11.74128 q -1.4357,-3.34503 -5.1191,-6.22286"
         id="path18" />
    </g>
    <g
       style="fill:#1b998b;fill-opacity:1;stroke-linejoin:miter"
       id="g19">
      <path
         d="m 1015.6477,517.0275 -0.9457,-3.25296 -34.18357,-101.67902 -34.12677,-104.88089 q -6.1925,-18.7966 -10.00876,-29.17423 -3.8163,-10.37762 -5.40567,-12.87994 l -0.66717,-0.80146 q -1.19236,1.2311 -1.92352,-0.0341 -1.37054,-1.82902 -2.47834,-4.54129 -0.5212,7.2851 4.3687,23.54349 l 69.6009,210.41208 q 1.5094,4.87915 6.2761,13.0975 2.4469,3.73993 7.7458,6.7722 0.9312,1.014 1.748,3.4186"
         id="path19" />
    </g>
    <g
       style="fill:#1b998b;fill-opacity:1;stroke-linejoin:miter"
       id="g20">
      <path
         d="m 995.2859,256.4073 -0.68214,0.0164 q -20.3551,1.14489 -33.79076,8.14286 -15.6103,7.55797 -21.2383,18.95614 1.5837,-1.22034 4.4183,-2.33506 l 9.5074,-3.6326 q 12.5546,-6.08282 18.56735,-7.90725 15.04435,-4.69525 23.13205,-4.37796 9.669,2.15591 45.1137,19.47009 9.9581,5.48534 16.6809,13.62909 15.5126,20.48663 8.3845,60.28395 -5.2507,24.0505 -33.6796,33.07884 -1.2926,1.10031 -0.8015,4.71126 1.231,3.20757 2.5614,2.87782 12.4243,-1.6687 21.8214,-8.04748 8.9075,-5.80469 15.4762,-19.07954 4.8599,-9.2495 5.5619,-24.10723 0.9668,-18.88037 -2.8467,-33.13607 -6.1429,-21.24894 -21.5695,-31.99357 0.1635,-1.84993 -35.5401,-18.78027 -18.0305,-8.40784 -21.0765,-7.76946"
         id="path20" />
    </g>
    <g
       style="fill:#1b998b;fill-opacity:1;stroke-linejoin:miter"
       id="g21"
       transform="matrix(0.91420912,0,0,0.93245433,86.383416,37.431232)">
      <path
         d="m 1079.6794,381.00668 -1.1231,0.008 q -12.2153,0.0598 -23.5615,4.75582 -5.5444,2.66898 -6.6174,3.9694 -5.2077,4.75698 -5.2631,5.85696 l -1.4567,1.1467 q 1.741,-1.1023 4.7926,-1.85136 l 16.9851,-3.59414 q 7.9918,-1.48036 13.4625,-1.4657 17.5385,-0.14156 33.2504,5.99004 29.3312,11.74348 24.3773,38.05556 -3.9244,17.61884 -24.1199,41.50927 -7.3341,9.54437 -41.0111,31.07437 -4.5008,3.74552 -24.0313,3.10282 -24.957,-1.53665 -25.0304,-1.99212 -1.8469,-0.37955 -3.3636,-1.6202 -1.5366,-1.36214 -2.3341,-3.66728 -0.1784,-0.19642 -0.5897,-0.26662 -3.3811,-0.16103 -7.1386,1.84554 0.2696,4.1632 3.2093,8.23132 2.5997,3.1922 6.6045,4.71884 8.6566,2.3764 31.199,2.7168 17.3365,-0.28617 23.525,-3.8457 15.0543,-9.23057 38.4432,-28.6231 8.9314,-7.85506 21.1797,-26.45613 8.7803,-14.46157 11.0646,-24.67343 4.9121,-21.8461 -12.0093,-37.81354 -10.8846,-8.98312 -20.529,-11.8426 -12.8991,-4.7779 -29.9144,-5.26992"
         id="path21" />
    </g>
  </g>
</svg>
